HIERARCHY
ROOT Hips
{
	OFFSET 0.000000 0.000000 0.000000
	CHANNELS 6 Xposition Yposition Zposition Zrotation Yrotation Xrotation 
	JOINT LHipJoint
	{
		OFFSET 0.000000 0.000000 0.000000
		CHANNELS 3 Zrotation Yrotation Xrotation
		JOINT LeftUpLeg
		{
			OFFSET 1.363060 -1.794630 0.839290
			CHANNELS 3 Zrotation Yrotation Xrotation
			JOINT LeftLeg
			{
				OFFSET 2.448110 -6.726130 0.000000
				CHANNELS 3 Zrotation Yrotation Xrotation
				JOINT LeftFoot
				{
					OFFSET 2.562200 -7.039590 0.000000
					CHANNELS 3 Zrotation Yrotation Xrotation
					JOINT LeftToeBase
					{
						OFFSET 0.157640 -0.433110 2.322550
						CHANNELS 3 Zrotation Yrotation Xrotation
						End Site
						{
							OFFSET 0.000000 0.000000 0.000000
						}
					}
				}
			}
		}
	}
	JOINT RHipJoint
	{
		OFFSET 0.000000 0.000000 0.000000
		CHANNELS 3 Zrotation Yrotation Xrotation
		JOINT RightUpLeg
		{
			OFFSET -1.305520 -1.794630 0.839290
			CHANNELS 3 Zrotation Yrotation Xrotation
			JOINT RightLeg
			{
				OFFSET -2.542530 -6.985550 0.000000
				CHANNELS 3 Zrotation Yrotation Xrotation
				JOINT RightFoot
				{
					OFFSET -2.568260 -7.056230 0.000000
					CHANNELS 3 Zrotation Yrotation Xrotation
					JOINT RightToeBase
					{
						OFFSET -0.164730 -0.452590 2.363150
						CHANNELS 3 Zrotation Yrotation Xrotation
						End Site
						{
							OFFSET 0.000000 0.000000 0.000000
						}
					}
				}
			}
		}
	}
	JOINT LowerBack
	{
		OFFSET 0.000000 0.000000 0.000000
		CHANNELS 3 Zrotation Yrotation Xrotation
		JOINT Spine
		{
			OFFSET 0.028270 2.035590 -0.193380
			CHANNELS 3 Zrotation Yrotation Xrotation
			JOINT Spine1
			{
				OFFSET 0.056720 2.048850 -0.042750
				CHANNELS 3 Zrotation Yrotation Xrotation
				JOINT Neck
				{
					OFFSET 0.000000 0.000000 0.000000
					CHANNELS 3 Zrotation Yrotation Xrotation
					JOINT Neck1
					{
						OFFSET -0.054170 1.746240 0.172020
						CHANNELS 3 Zrotation Yrotation Xrotation
						JOINT Head
						{
							OFFSET 0.104070 1.761360 -0.123970
							CHANNELS 3 Zrotation Yrotation Xrotation
							End Site
							{
								OFFSET 0.000000 0.000000 0.000000
							}
						}
					}
				}
				JOINT LeftShoulder
				{
					OFFSET 0.000000 0.000000 0.000000
					CHANNELS 3 Zrotation Yrotation Xrotation
					JOINT LeftArm
					{
						OFFSET 3.362410 1.200890 -0.311210
						CHANNELS 3 Zrotation Yrotation Xrotation
						JOINT LeftForeArm
						{
							OFFSET 4.983000 -0.000000 -0.000000
							CHANNELS 3 Zrotation Yrotation Xrotation
							JOINT LeftHand
							{
								OFFSET 3.483560 -0.000000 -0.000000
								CHANNELS 3 Zrotation Yrotation Xrotation
								JOINT LeftFingerBase
								{
									OFFSET 0.000000 0.000000 0.000000
									CHANNELS 3 Zrotation Yrotation Xrotation
									JOINT LeftHandIndex1
									{
										OFFSET 0.715260 -0.000000 -0.000000
										CHANNELS 3 Zrotation Yrotation Xrotation
										End Site
										{
											OFFSET 0.000000 0.000000 0.000000
										}
									}
								}
								JOINT LThumb
								{
									OFFSET 0.000000 0.000000 0.000000
									CHANNELS 3 Zrotation Yrotation Xrotation
									End Site
									{
										OFFSET 0.000000 0.000000 0.000000
									}
								}
							}
						}
					}
				}
				JOINT RightShoulder
				{
					OFFSET 0.000000 0.000000 0.000000
					CHANNELS 3 Zrotation Yrotation Xrotation
					JOINT RightArm
					{
						OFFSET -3.136600 1.374050 -0.404650
						CHANNELS 3 Zrotation Yrotation Xrotation
						JOINT RightForeArm
						{
							OFFSET -5.241900 -0.000000 -0.000000
							CHANNELS 3 Zrotation Yrotation Xrotation
							JOINT RightHand
							{
								OFFSET -3.444170 -0.000000 -0.000000
								CHANNELS 3 Zrotation Yrotation Xrotation
								JOINT RightFingerBase
								{
									OFFSET 0.000000 0.000000 0.000000
									CHANNELS 3 Zrotation Yrotation Xrotation
									JOINT RightHandIndex1
									{
										OFFSET -0.622530 -0.000000 -0.000000
										CHANNELS 3 Zrotation Yrotation Xrotation
										End Site
										{
											OFFSET 0.000000 0.000000 0.000000
										}
									}
								}
								JOINT RThumb
								{
									OFFSET 0.000000 0.000000 0.000000
									CHANNELS 3 Zrotation Yrotation Xrotation
									End Site
									{
										OFFSET 0.000000 0.000000 0.000000
									}
								}
							}
						}
					}
				}
			}
		}
	}
}
MOTION
Frames: 9
Frame Time: 0.008333
11.453542 14.839885 18.595425 -13.195570 -8.201532 108.175876 -4.550578 -15.407214 -0.574320 -21.846712 -11.035412 -15.870690 -1.030282 30.071760 22.911783 7.067932 14.398321 67.122165 6.035500 14.462600 45.123800 16.316881 1.536760 0.816568 -24.654731 -7.747123 -20.740144 8.575979 -29.990827 34.638513 -16.188688 -22.698083 63.402885 -0.654200 -5.173500 14.404000 6.538532 5.506912 -5.315756 -28.749587 -32.612528 -21.108366 15.750888 37.706415 4.367394 13.821682 8.115929 -23.031182 5.793108 -2.324706 15.018406 -0.333900 -0.475700 13.962000 33.996092 -11.667367 -2.891032 49.455148 -4.508253 -94.589477 3.535406 -12.815554 -3.599298 -9.280128 4.067630 10.065591 38.617160 2.967383 0.169800 -7.125000 0.000000 0.000000 17.256900 29.947700 -6.610600 -16.643532 13.441432 -12.879048 -41.582156 22.251777 -73.688289 -3.717044 25.916233 -4.528712 9.186019 4.906518 -8.239809 -29.309852 3.332622 0.207300 7.125000 0.000000 0.000000 -9.971100 -30.226400 -3.645300 
11.460073 14.841917 18.591507 -14.344604 -6.245601 107.981923 -4.258500 -13.227154 -0.168106 -21.151796 -6.744792 -16.396287 0.339882 30.980496 25.819972 7.147160 13.856869 66.762750 5.897900 14.328700 44.570500 16.833126 5.023766 1.269443 -21.400051 -8.017959 -21.493765 0.212724 -29.060986 38.764242 -13.999129 -22.880094 63.562146 -0.707000 -5.374200 14.979100 2.374928 1.612792 -5.631078 -15.650308 -28.380217 -16.858383 11.591155 29.383006 -9.175643 10.392226 9.647933 -20.855032 4.525671 -1.605152 16.563398 -0.234400 -0.502400 13.944500 32.093782 -7.245500 -6.788392 34.628370 -17.207898 -92.705801 -5.992760 -12.856507 -3.448104 -8.368505 3.687288 7.818617 39.807760 1.101039 -1.903400 -7.125000 0.000000 0.000000 16.884900 27.310900 -7.564700 -21.654842 11.903152 -9.096466 -45.457566 30.775758 -73.258791 -4.503709 29.064557 -4.562885 9.175278 5.263517 -7.467698 -29.361860 4.111116 -0.034900 7.125000 0.000000 0.000000 -9.978000 -29.848400 -3.739300 
11.465297 14.842352 18.589765 -14.017828 -5.361383 107.912865 -4.501649 -11.323043 -0.030172 -20.638003 -3.206896 -16.825553 2.150426 31.030652 29.108943 7.256431 13.330204 66.432505 5.763600 14.195200 44.025300 16.388269 7.677954 1.471959 -18.071711 -8.176845 -21.855342 -5.777155 -27.587537 42.240794 -12.010517 -23.105068 63.906338 -0.766400 -5.590200 15.600000 0.925872 -0.042231 -5.831178 -12.006610 -24.340020 -15.391443 9.673693 23.176423 -14.282539 10.138257 10.513346 -19.946422 4.828019 -1.301283 17.109260 -0.178700 -0.539600 13.927400 30.715720 -6.427729 -6.123675 30.407575 -22.778127 -91.190807 -9.814532 -14.256824 -3.425180 -7.862217 3.314017 5.598972 40.529613 -0.814257 -3.949100 -7.125000 0.000000 0.000000 16.480400 24.708400 -8.420000 -22.515548 10.689562 -4.468645 -46.096626 33.124876 -72.284374 -3.488530 29.391724 -4.527053 9.823949 5.493898 -6.769763 -28.806443 4.708726 -0.294500 7.125000 0.000000 0.000000 -9.998200 -29.444400 -3.844900 
11.469216 14.842062 18.590056 -13.364503 -4.605654 107.698537 -4.899857 -9.403346 -0.317545 -19.884832 0.100540 -16.799387 4.120212 30.511227 32.441895 7.310072 12.799784 66.194171 5.626900 14.056800 43.465300 15.472618 9.805009 1.476084 -14.543102 -8.485632 -21.802494 -9.976656 -26.069633 45.123302 -10.465681 -23.315354 64.298044 -0.827900 -5.805100 16.220100 0.933140 -2.905081 -6.146386 -15.170216 -23.915871 -13.504129 11.603809 16.995992 -15.735058 11.992644 10.039800 -21.179216 5.115517 -1.297095 16.480818 -0.209800 -0.599200 13.931800 30.372436 -6.088153 -3.121506 30.569550 -18.861539 -90.341469 -9.132631 -11.415484 -3.783513 -7.666974 3.197712 3.307165 40.894151 -2.165700 -5.758700 -7.125000 0.000000 0.000000 16.131300 22.402000 -9.123800 -20.142568 9.713459 -2.605482 -47.278709 30.955599 -71.135069 -3.649905 28.362730 -4.481654 10.722646 5.342747 -6.256615 -28.073707 4.921968 -0.577400 7.125000 0.000000 0.000000 -10.028200 -29.006000 -3.963000 
11.471828 14.841336 18.592958 -12.523931 -3.161785 108.167686 -5.191752 -7.781194 -1.048585 -18.328475 3.397956 -16.934583 6.029005 29.691544 35.636536 7.327595 12.291255 66.123511 5.491800 13.917100 42.906200 14.459779 11.522725 0.849901 -10.679404 -8.666806 -21.739415 -12.906535 -24.771214 47.493493 -9.346565 -23.461580 64.646514 -0.887500 -6.005000 16.798900 0.702273 -6.957662 -5.535605 -21.407125 -27.504600 -10.527154 20.814332 9.477717 -14.812257 17.099980 8.462355 -23.963924 5.137840 -1.441844 15.188434 -0.253900 -0.662600 13.932300 33.966715 -5.545398 1.964357 23.834121 -10.266895 -90.130643 -5.439662 -6.388448 -3.959120 -9.942653 2.409431 1.866855 38.838878 -4.099719 -7.316500 -7.125000 0.000000 0.000000 15.850100 20.415200 -9.698400 -17.899329 10.220230 -3.057684 -52.234490 26.487044 -69.526710 -5.889385 26.719275 -4.430984 11.698697 4.639178 -5.970508 -27.361197 4.638338 -0.917400 7.125000 0.000000 0.000000 -10.074600 -28.481700 -4.109200 
11.473279 14.840320 18.598618 -8.805618 -0.837045 109.091860 -5.245788 -7.307463 -0.867285 -15.462981 5.913636 -17.938736 8.272173 28.014937 38.942238 7.350831 11.841086 66.295161 5.364400 13.782700 42.374000 14.151252 11.290503 0.687532 -6.439072 -8.606238 -22.473496 -14.430211 -24.426872 49.370289 -8.510447 -23.470094 64.903477 -0.943600 -6.186800 17.327400 -2.355902 -4.710336 -5.237544 -16.812166 -21.925698 -5.039717 31.888515 2.684608 -12.068624 17.492562 6.911910 -20.090482 4.380388 -1.257144 14.521006 -0.265800 -0.713900 13.913500 47.886665 0.683112 8.250013 0.534373 -7.429861 -89.153189 -5.829414 -9.052364 -3.589065 -10.450574 1.500534 1.127123 38.569825 -5.935285 -8.552800 -7.125000 0.000000 0.000000 15.688700 18.850800 -10.164900 -22.091020 11.771198 -0.040252 -55.428138 28.586812 -67.213604 -4.854025 26.948680 -4.289355 12.864468 3.813570 -5.685769 -26.489529 4.312998 -1.313200 7.125000 0.000000 0.000000 -10.137500 -27.875800 -4.283300 
11.474005 14.839304 18.607035 -4.947600 0.351644 108.160005 -6.289430 -7.157162 1.528196 -12.803666 7.493304 -19.607823 10.421646 26.130890 42.159720 7.191713 11.413291 66.592855 5.248800 13.658600 41.886700 13.959608 8.850458 2.529010 -3.421525 -8.027035 -23.734038 -15.492054 -24.521415 51.587270 -8.005454 -23.362971 65.044245 -0.995200 -6.349000 17.800300 -3.416732 3.577034 -7.292789 -6.682488 -2.643464 1.518718 20.269750 -11.963286 -10.206585 13.003546 3.831749 -9.509427 5.090693 -1.126960 12.561273 -0.262800 -0.755700 13.886900 32.422118 6.719141 -4.414370 19.726344 -21.449075 -88.308974 0.675302 -5.439425 -3.103442 2.256782 0.634509 0.248113 51.454637 -7.503340 -9.645000 -7.125000 0.000000 0.000000 15.583400 17.480700 -10.583200 -14.768078 15.848258 0.904366 -57.776525 37.394896 -66.233230 -5.315458 29.636781 -4.126258 13.061928 3.460197 -5.145641 -26.534292 4.664455 -1.755700 7.125000 0.000000 0.000000 -10.205000 -27.203600 -4.477100 
11.473860 14.838434 18.618355 -4.335116 -0.196211 108.410011 -7.564057 -6.848725 1.982238 -11.935401 8.714667 -20.965914 11.683001 25.322314 44.837236 6.930666 11.009778 66.695623 5.152600 13.553600 41.477900 12.725291 8.021427 2.695373 -2.342443 -7.458918 -24.534765 -16.689070 -24.367453 54.224907 -7.797772 -23.116320 65.055646 -1.040700 -6.487900 18.206800 -0.731962 6.407606 -7.093971 -7.944091 5.988129 2.293312 8.423454 -48.347214 -21.196444 9.432655 3.099069 1.142754 4.623494 -0.645353 9.464044 -0.188900 -0.773300 13.834900 24.724222 22.837646 -36.312366 136.508275 -75.854370 -99.744377 15.343151 -10.787025 -5.941235 12.201921 -0.455264 -2.617533 61.800007 -6.629297 -10.507200 -7.125000 0.000000 0.000000 15.569600 16.423600 -10.948000 -12.211819 35.417570 10.459979 -55.698537 30.420504 -63.517594 -16.047095 23.794574 -4.046669 13.049361 2.881815 -4.609570 -26.831155 4.837728 -2.229800 7.125000 0.000000 0.000000 -10.277100 -26.489300 -4.685100 
11.473134 14.837273 18.632432 -10.002498 -2.404103 105.793131 -9.926120 -3.355434 3.627642 -13.022588 10.921383 -21.294172 11.818159 26.099716 46.535436 7.068469 10.729873 66.436941 5.077600 13.470600 41.156800 9.990339 10.201787 2.595089 -2.485849 -7.380141 -21.348899 -18.499659 -22.945335 56.246047 -7.502887 -22.708963 65.154136 -1.082300 -6.612300 18.571800 7.609620 -1.367831 -15.022732 -23.356541 -4.885316 18.001947 19.888721 -62.139207 -17.382448 14.324523 9.845836 -4.119233 3.593276 0.663909 7.174100 -0.185300 -0.804700 13.813600 30.821276 13.865267 -38.933462 85.827262 -33.830150 -106.365508 -16.082681 31.452836 2.358497 -3.389280 -1.763957 5.636910 46.352284 -14.554320 -11.153800 -7.125000 0.000000 0.000000 15.644200 15.662900 -11.273500 -20.012392 37.177075 10.125695 -39.676906 18.720448 -61.804033 -15.130616 27.590947 -4.044958 13.784428 2.451486 -3.876400 -26.388415 5.101452 -2.714800 7.125000 0.000000 0.000000 -10.354300 -25.765600 -4.899800 
